<svg width="129" height="121" version="1.1" xmlns="http://www.w3.org/2000/svg" desc="Created with imagetracer.js version 1.2.6" ><path fill="rgb(0,0,0)" stroke="rgb(0,0,0)" stroke-width="1" opacity="0" d="M 0 0 L 128.5 0 L 129 0.5 L 129 12 L 0.5 12 L 0 11.5 L 0 0 Z " /><path fill="rgb(0,0,0)" stroke="rgb(0,0,0)" stroke-width="1" opacity="0" d="M 0 114 L 128.5 114 L 129 114.5 L 129 121 L 0.5 121 L 0 120.5 L 0 114 Z " /><path fill="rgb(215,0,42)" stroke="rgb(215,0,42)" stroke-width="1" opacity="1" d="M 50 21 L 78.5 21 Q 79.5 21 79 25.5 L 76 40.5 L 75 54.5 L 73.5 57 L 48 38 L 50 21 Z " /><path fill="rgb(215,0,42)" stroke="rgb(215,0,42)" stroke-width="1" opacity="1" d="M 30.5 37 L 45.5 37 L 47 38.5 L 45 53 L 36.5 52 L 29.5 54 L 25 58.5 L 24 67.5 L 28.5 73 L 34.5 75 L 40.5 75 L 42 74.5 L 40 90 Q 18.9 91.9 10 80.5 L 6 72.5 L 5 62.5 L 9 50.5 L 14.5 44 Q 20.6 38.6 30.5 37 Z " /><path fill="rgb(215,0,42)" stroke="rgb(215,0,42)" stroke-width="1" opacity="1" d="M 99.5 37 L 111.5 37 L 120 39 L 117.5 55 L 113.5 53 L 100.5 53 Q 94.4 54.4 92 59.5 L 91 66.5 L 95.5 73 Q 100.6 76.4 110.5 75 L 115 74 L 113 89 L 110.5 90 L 93.5 90 Q 84.9 88.4 80 84 L 85 43.5 L 86 41 L 99.5 37 Z " /><path fill="rgb(215,0,42)" stroke="rgb(215,0,42)" stroke-width="1" opacity="1" d="M 53 64 L 79 83.5 L 77 101.5 L 76 104 L 47.5 104 L 47 101.5 L 48 100.5 L 52 66.5 L 53 64 Z " /><path fill="rgb(250,227,231)" stroke="rgb(250,227,231)" stroke-width="1" opacity="1" d="M 100.5 36 L 103 36.5 L 100.5 37 L 100.5 36 Z " /><path fill="rgb(250,227,231)" stroke="rgb(250,227,231)" stroke-width="1" opacity="1" d="M 108.5 36 L 111 36.5 L 108.5 37 L 108.5 36 Z " /><path fill="rgb(250,227,231)" stroke="rgb(250,227,231)" stroke-width="1" opacity="1" d="M 48.5 38 L 49.5 40 L 48 39.5 L 47.5 41 L 47 39.5 L 48.5 38 Z " /><path fill="rgb(250,227,231)" stroke="rgb(250,227,231)" stroke-width="1" opacity="1" d="M 119.5 38 L 120.5 40 L 119.5 38 Z " /><path fill="rgb(250,227,231)" stroke="rgb(250,227,231)" stroke-width="1" opacity="1" d="M 52.5 41 L 53.5 43 L 52.5 41 Z " /><path fill="rgb(250,227,231)" stroke="rgb(250,227,231)" stroke-width="1" opacity="1" d="M 15.5 42 L 14.5 44 L 15.5 42 Z " /><path fill="rgb(250,227,231)" stroke="rgb(250,227,231)" stroke-width="1" opacity="1" d="M 57.5 45 L 58.5 47 L 57.5 45 Z " /><path fill="rgb(250,227,231)" stroke="rgb(250,227,231)" stroke-width="1" opacity="1" d="M 10.5 47 L 9.5 49 L 10.5 47 Z " /><path fill="rgb(250,227,231)" stroke="rgb(250,227,231)" stroke-width="1" opacity="1" d="M 66.5 52 L 67.5 54 L 66.5 52 Z " /><path fill="rgb(250,227,231)" stroke="rgb(250,227,231)" stroke-width="1" opacity="1" d="M 103.5 53 L 106 53.5 L 103.5 54 L 103.5 53 Z " /><path fill="rgb(250,227,231)" stroke="rgb(250,227,231)" stroke-width="1" opacity="1" d="M 107.5 53 L 110 53.5 L 107.5 54 L 107.5 53 Z " /><path fill="rgb(250,227,231)" stroke="rgb(250,227,231)" stroke-width="1" opacity="1" d="M 118.5 53 L 119 54.5 L 117 55.5 L 118.5 53 Z " /><path fill="rgb(250,227,231)" stroke="rgb(250,227,231)" stroke-width="1" opacity="1" d="M 95.5 56 L 94.5 58 L 95.5 56 Z " /><path fill="rgb(250,227,231)" stroke="rgb(250,227,231)" stroke-width="1" opacity="1" d="M 58.5 66 L 59.5 68 L 58.5 66 Z " /><path fill="rgb(250,227,231)" stroke="rgb(250,227,231)" stroke-width="1" opacity="1" d="M 67.5 73 L 68.5 75 L 67.5 73 Z " /><path fill="rgb(250,227,231)" stroke="rgb(250,227,231)" stroke-width="1" opacity="1" d="M 71.5 76 L 72.5 78 L 71.5 76 Z " /><path fill="rgb(250,227,231)" stroke="rgb(250,227,231)" stroke-width="1" opacity="1" d="M 76.5 80 L 77.5 82 L 76.5 80 Z " /><path fill="rgb(250,227,231)" stroke="rgb(250,227,231)" stroke-width="1" opacity="1" d="M 80.5 84 L 81.5 86 L 79 85.5 L 80.5 84 Z " /><path fill="rgb(250,227,231)" stroke="rgb(250,227,231)" stroke-width="1" opacity="1" d="M 40.5 89 L 39.5 91 L 36 90.5 L 40.5 89 Z " /><path fill="rgb(250,227,231)" stroke="rgb(250,227,231)" stroke-width="1" opacity="1" d="M 28.5 90 L 31 90.5 L 28.5 91 L 28.5 90 Z " /><path fill="rgb(255,254,255)" stroke="rgb(255,254,255)" stroke-width="1" opacity="1" d="M 72.5 57 L 73.5 59 L 72.5 57 Z " /><path fill="rgb(255,254,255)" stroke="rgb(255,254,255)" stroke-width="1" opacity="1" d="M 61.5 68 L 62.5 70 L 61.5 68 Z " /><path fill="rgb(255,254,255)" stroke="rgb(255,254,255)" stroke-width="1" opacity="1" d="M 94.5 70 L 95.5 72 L 94.5 70 Z " /><path fill="rgb(255,255,255)" stroke="rgb(255,255,255)" stroke-width="1" opacity="1" d="M 0 12 L 129 12 L 129 114 L 0 114 L 0 12 Z M 49 21 L 47 37 L 46 36 L 31 36 L 26 37 L 16 42 Q 8 47 5 57 L 5 73 L 8 80 Q 12 86 20 89 L 28 91 L 41 91 L 43 73 L 41 74 L 35 74 L 27 71 L 25 68 Q 24 60 27 58 L 37 53 L 46 54 L 47 42 L 49 39 L 75 59 L 78 34 L 79 33 L 79 26 L 80 25 L 80 21 L 49 21 Z M 100 36 L 87 40 L 84 44 L 80 79 L 79 82 L 52 62 L 49 87 L 48 88 L 48 94 L 47 95 L 47 101 L 46 102 L 47 105 L 77 105 L 78 102 L 79 88 L 81 85 Q 85 90 94 91 L 111 91 L 114 90 L 116 73 L 111 74 Q 102 75 98 73 L 92 67 Q 91 61 94 59 L 101 54 Q 113 53 119 56 L 121 38 L 112 36 L 100 36 Z " /><path fill="rgb(221,43,78)" stroke="rgb(221,43,78)" stroke-width="1" opacity="1" d="M 49.5 38 L 50.5 40 L 49.5 38 Z " /><path fill="rgb(221,43,78)" stroke="rgb(221,43,78)" stroke-width="1" opacity="1" d="M 16.5 42 L 15.5 44 L 16.5 42 Z " /><path fill="rgb(221,43,78)" stroke="rgb(221,43,78)" stroke-width="1" opacity="1" d="M 58.5 45 L 59.5 47 L 58.5 45 Z " /><path fill="rgb(221,43,78)" stroke="rgb(221,43,78)" stroke-width="1" opacity="1" d="M 36.5 52 L 42 52.5 L 36.5 53 L 36.5 52 Z " /><path fill="rgb(221,43,78)" stroke="rgb(221,43,78)" stroke-width="1" opacity="1" d="M 67.5 52 L 68.5 54 L 67.5 52 Z " /><path fill="rgb(221,43,78)" stroke="rgb(221,43,78)" stroke-width="1" opacity="1" d="M 74.5 55 L 75 56.5 Q 73.5 59.5 72 56.5 L 74 56.5 L 74.5 55 Z " /><path fill="rgb(221,43,78)" stroke="rgb(221,43,78)" stroke-width="1" opacity="1" d="M 91.5 62 L 92 66.5 L 91 66.5 L 91.5 62 Z " /><path fill="rgb(221,43,78)" stroke="rgb(221,43,78)" stroke-width="1" opacity="1" d="M 53.5 63 L 53 64.5 L 52.5 66 L 52 64.5 L 53.5 63 Z " /><path fill="rgb(221,43,78)" stroke="rgb(221,43,78)" stroke-width="1" opacity="1" d="M 57.5 66 L 58.5 68 L 57.5 66 Z " /><path fill="rgb(221,43,78)" stroke="rgb(221,43,78)" stroke-width="1" opacity="1" d="M 61.5 69 L 62.5 71 L 61.5 69 Z " /><path fill="rgb(221,43,78)" stroke="rgb(221,43,78)" stroke-width="1" opacity="1" d="M 92.5 69 L 93.5 71 L 92.5 69 Z " /><path fill="rgb(221,43,78)" stroke="rgb(221,43,78)" stroke-width="1" opacity="1" d="M 66.5 73 L 67.5 75 L 66.5 73 Z " /><path fill="rgb(221,43,78)" stroke="rgb(221,43,78)" stroke-width="1" opacity="1" d="M 34.5 74 L 41 74.5 L 34.5 75 L 34.5 74 Z " /><path fill="rgb(221,43,78)" stroke="rgb(221,43,78)" stroke-width="1" opacity="1" d="M 70.5 76 L 71.5 78 L 70.5 76 Z " /><path fill="rgb(221,43,78)" stroke="rgb(221,43,78)" stroke-width="1" opacity="1" d="M 81.5 84 L 82.5 86 L 81.5 84 Z " /><path fill="rgb(221,43,78)" stroke="rgb(221,43,78)" stroke-width="1" opacity="1" d="M 76.5 102 L 77 103.5 L 75.5 105 L 47.5 105 L 47.5 104 L 75.5 104 L 76.5 102 Z " /><path fill="rgb(236,134,154)" stroke="rgb(236,134,154)" stroke-width="1" opacity="1" d="M 32.5 36 L 44 36.5 L 32.5 37 L 32.5 36 Z " /><path fill="rgb(236,134,154)" stroke="rgb(236,134,154)" stroke-width="1" opacity="1" d="M 47.5 36 L 48 38.5 L 47 38.5 L 47.5 36 Z " /><path fill="rgb(236,134,154)" stroke="rgb(236,134,154)" stroke-width="1" opacity="1" d="M 103.5 36 L 108 36.5 L 103.5 37 L 103.5 36 Z " /><path fill="rgb(236,134,154)" stroke="rgb(236,134,154)" stroke-width="1" opacity="1" d="M 76.5 42 L 77 44.5 L 76 44.5 L 76.5 42 Z " /><path fill="rgb(236,134,154)" stroke="rgb(236,134,154)" stroke-width="1" opacity="1" d="M 55.5 43 L 56.5 45 L 55.5 43 Z " /><path fill="rgb(236,134,154)" stroke="rgb(236,134,154)" stroke-width="1" opacity="1" d="M 119.5 43 L 120 45.5 L 119 45.5 L 119.5 43 Z " /><path fill="rgb(236,134,154)" stroke="rgb(236,134,154)" stroke-width="1" opacity="1" d="M 13.5 44 L 11.5 47 L 13.5 44 Z " /><path fill="rgb(236,134,154)" stroke="rgb(236,134,154)" stroke-width="1" opacity="1" d="M 60.5 47 L 61.5 49 L 60.5 47 Z " /><path fill="rgb(236,134,154)" stroke="rgb(236,134,154)" stroke-width="1" opacity="1" d="M 9.5 49 L 8.5 51 L 9.5 49 Z " /><path fill="rgb(236,134,154)" stroke="rgb(236,134,154)" stroke-width="1" opacity="1" d="M 75.5 49 L 76 51.5 L 75 51.5 L 75.5 49 Z " /><path fill="rgb(236,134,154)" stroke="rgb(236,134,154)" stroke-width="1" opacity="1" d="M 64.5 50 L 65.5 52 L 64.5 50 Z " /><path fill="rgb(236,134,154)" stroke="rgb(236,134,154)" stroke-width="1" opacity="1" d="M 45.5 51 L 46 52.5 L 44 53.5 L 45.5 51 Z " /><path fill="rgb(236,134,154)" stroke="rgb(236,134,154)" stroke-width="1" opacity="1" d="M 69.5 54 L 70.5 56 L 69.5 54 Z " /><path fill="rgb(236,134,154)" stroke="rgb(236,134,154)" stroke-width="1" opacity="1" d="M 28.5 55 L 26.5 58 L 28.5 55 Z " /><path fill="rgb(236,134,154)" stroke="rgb(236,134,154)" stroke-width="1" opacity="1" d="M 82.5 60 L 83 62.5 L 82 62.5 L 82.5 60 Z " /><path fill="rgb(236,134,154)" stroke="rgb(236,134,154)" stroke-width="1" opacity="1" d="M 55.5 64 L 56.5 66 L 55.5 64 Z " /><path fill="rgb(236,134,154)" stroke="rgb(236,134,154)" stroke-width="1" opacity="1" d="M 81.5 67 L 82 69.5 L 81 69.5 L 81.5 67 Z " /><path fill="rgb(236,134,154)" stroke="rgb(236,134,154)" stroke-width="1" opacity="1" d="M 51.5 68 L 52 70.5 L 51 70.5 L 51.5 68 Z " /><path fill="rgb(236,134,154)" stroke="rgb(236,134,154)" stroke-width="1" opacity="1" d="M 26.5 70 L 27.5 72 L 26.5 70 Z " /><path fill="rgb(236,134,154)" stroke="rgb(236,134,154)" stroke-width="1" opacity="1" d="M 64.5 71 L 65.5 73 L 64.5 71 Z " /><path fill="rgb(236,134,154)" stroke="rgb(236,134,154)" stroke-width="1" opacity="1" d="M 115.5 73 L 116 75.5 L 115 75.5 L 115.5 73 Z " /><path fill="rgb(236,134,154)" stroke="rgb(236,134,154)" stroke-width="1" opacity="1" d="M 80.5 74 L 81 76.5 L 80 76.5 L 80.5 74 Z " /><path fill="rgb(236,134,154)" stroke="rgb(236,134,154)" stroke-width="1" opacity="1" d="M 101.5 74 L 109 74.5 L 101.5 75 L 101.5 74 Z " /><path fill="rgb(236,134,154)" stroke="rgb(236,134,154)" stroke-width="1" opacity="1" d="M 50.5 75 L 51 77.5 L 50 77.5 L 50.5 75 Z " /><path fill="rgb(236,134,154)" stroke="rgb(236,134,154)" stroke-width="1" opacity="1" d="M 73.5 78 L 74.5 80 L 73.5 78 Z " /><path fill="rgb(236,134,154)" stroke="rgb(236,134,154)" stroke-width="1" opacity="1" d="M 41.5 79 L 42 81.5 L 41 81.5 L 41.5 79 Z " /><path fill="rgb(236,134,154)" stroke="rgb(236,134,154)" stroke-width="1" opacity="1" d="M 10.5 81 L 13.5 85 L 10.5 81 Z " /><path fill="rgb(236,134,154)" stroke="rgb(236,134,154)" stroke-width="1" opacity="1" d="M 40.5 86 L 41 88.5 L 40 88.5 L 40.5 86 Z " /><path fill="rgb(236,134,154)" stroke="rgb(236,134,154)" stroke-width="1" opacity="1" d="M 113.5 88 L 112.5 90 L 113.5 88 Z " /><path fill="rgb(236,134,154)" stroke="rgb(236,134,154)" stroke-width="1" opacity="1" d="M 78.5 89 L 79 91.5 L 78 91.5 L 78.5 89 Z " /><path fill="rgb(236,134,154)" stroke="rgb(236,134,154)" stroke-width="1" opacity="1" d="M 31.5 90 L 36 90.5 L 31.5 91 L 31.5 90 Z " /><path fill="rgb(236,134,154)" stroke="rgb(236,134,154)" stroke-width="1" opacity="1" d="M 95.5 90 L 109 90.5 L 95.5 91 L 95.5 90 Z " /></svg>